<?xml version="1.0" encoding="UTF-8"?>
<!DOCTYPE svg PUBLIC "-//W3C//DTD SVG 1.1//EN" "http://www.w3.org/Graphics/SVG/1.1/DTD/svg11.dtd">
<svg xmlns="http://www.w3.org/2000/svg" version="1.1" width="85px" height="85px" style="shape-rendering:geometricPrecision; text-rendering:geometricPrecision; image-rendering:optimizeQuality; fill-rule:evenodd; clip-rule:evenodd" xmlns:xlink="http://www.w3.org/1999/xlink">
  <g><path style="opacity:1" fill="#215d69" d="M 58.5,16.5 C 59.7927,18.2959 61.2927,19.9625 63,21.5C 63.3051,28.1834 63.3051,34.8501 63,41.5C 64.8647,43.6732 67.0314,44.0066 69.5,42.5C 71.2866,40.1416 72.2866,37.475 72.5,34.5C 77.2117,59.6876 66.7117,74.0209 41,77.5C 33.6314,77.212 27.1314,74.8787 21.5,70.5C 31.3762,60.4199 37.8762,48.4199 41,34.5C 41.6667,30.5 41.6667,26.5 41,22.5C 38.0337,19.7348 35.367,20.0682 33,23.5C 32.4738,39.5467 26.3071,52.88 14.5,63.5C 4.45782,44.8369 7.79115,29.0036 24.5,16C 35.8909,10.1709 47.2243,10.3376 58.5,16.5 Z"/></g>
  <g><path style="opacity:1" fill="#e5f8fc" d="M 21.5,70.5 C 18.8333,68.5 16.5,66.1667 14.5,63.5C 26.3071,52.88 32.4738,39.5467 33,23.5C 35.367,20.0682 38.0337,19.7348 41,22.5C 41.6667,26.5 41.6667,30.5 41,34.5C 37.8762,48.4199 31.3762,60.4199 21.5,70.5 Z"/></g>
  <g><path style="opacity:1" fill="#e4f5f9" d="M 58.5,16.5 C 65.7865,20.4542 70.4532,26.4542 72.5,34.5C 72.2866,37.475 71.2866,40.1416 69.5,42.5C 67.0314,44.0066 64.8647,43.6732 63,41.5C 63.3051,34.8501 63.3051,28.1834 63,21.5C 61.2927,19.9625 59.7927,18.2959 58.5,16.5 Z"/></g>
  <g><path style="opacity:1" fill="#e4f8fc" d="M 59.5,48.5 C 64.5011,47.6714 66.6678,49.6714 66,54.5C 62.8565,61.9585 58.3565,68.4585 52.5,74C 48.1496,74.6452 45.9829,72.8118 46,68.5C 51.253,62.3229 55.753,55.6562 59.5,48.5 Z"/></g>
</svg>
